<svg xmlns="http://www.w3.org/2000/svg" viewBox="0 0 200 200" fill="none">
  <defs>
    <linearGradient id="g" x1="30" y1="30" x2="170" y2="170" gradientUnits="userSpaceOnUse">
      <stop offset="0%" stop-color="#005bbf"/>
      <stop offset="100%" stop-color="#004a9f"/>
    </linearGradient>
  </defs>
  <path d="M60 170 A85 85 0 1 1 160 90" stroke="url(#g)" stroke-width="18" stroke-linecap="round"/>
  <line x1="100" y1="52" x2="72" y2="158" stroke="url(#g)" stroke-width="7" stroke-linecap="round"/>
  <line x1="100" y1="52" x2="138" y2="148" stroke="url(#g)" stroke-width="7" stroke-linecap="round"/>
  <circle cx="100" cy="48" r="8" fill="url(#g)"/>
  <circle cx="100" cy="48" r="4" fill="white"/>
  <rect x="90" y="80" width="20" height="10" rx="3" fill="url(#g)"/>
  <polygon points="72,158 68,172 76,172" fill="url(#g)"/>
  <path d="M78 38 A28 28 0 0 1 122 38" stroke="url(#g)" stroke-width="4" stroke-linecap="round"/>
  <line x1="80" y1="36" x2="82" y2="30" stroke="url(#g)" stroke-width="2.5" stroke-linecap="round"/>
  <line x1="90" y1="30" x2="91" y2="24" stroke="url(#g)" stroke-width="2.5" stroke-linecap="round"/>
  <line x1="100" y1="28" x2="100" y2="22" stroke="url(#g)" stroke-width="2.5" stroke-linecap="round"/>
  <line x1="110" y1="30" x2="109" y2="24" stroke="url(#g)" stroke-width="2.5" stroke-linecap="round"/>
  <line x1="120" y1="36" x2="118" y2="30" stroke="url(#g)" stroke-width="2.5" stroke-linecap="round"/>
  <circle cx="148" cy="120" r="14" stroke="url(#g)" stroke-width="5"/>
  <circle cx="148" cy="120" r="5" fill="url(#g)"/>
  <line x1="148" y1="103" x2="148" y2="108" stroke="url(#g)" stroke-width="4" stroke-linecap="round"/>
  <line x1="148" y1="132" x2="148" y2="137" stroke="url(#g)" stroke-width="4" stroke-linecap="round"/>
  <line x1="131" y1="120" x2="136" y2="120" stroke="url(#g)" stroke-width="4" stroke-linecap="round"/>
  <line x1="160" y1="120" x2="165" y2="120" stroke="url(#g)" stroke-width="4" stroke-linecap="round"/>
  <line x1="136" y1="108" x2="140" y2="112" stroke="url(#g)" stroke-width="4" stroke-linecap="round"/>
  <line x1="156" y1="128" x2="160" y2="132" stroke="url(#g)" stroke-width="4" stroke-linecap="round"/>
  <line x1="156" y1="108" x2="160" y2="112" stroke="url(#g)" stroke-width="3.5" stroke-linecap="round"/>
  <line x1="136" y1="128" x2="140" y2="132" stroke="url(#g)" stroke-width="3.5" stroke-linecap="round"/>
  <circle cx="160" cy="88" r="9" stroke="url(#g)" stroke-width="4"/>
  <circle cx="160" cy="88" r="3.5" fill="url(#g)"/>
  <line x1="160" y1="76" x2="160" y2="80" stroke="url(#g)" stroke-width="3" stroke-linecap="round"/>
  <line x1="160" y1="96" x2="160" y2="100" stroke="url(#g)" stroke-width="3" stroke-linecap="round"/>
  <line x1="148" y1="88" x2="152" y2="88" stroke="url(#g)" stroke-width="3" stroke-linecap="round"/>
  <line x1="168" y1="88" x2="172" y2="88" stroke="url(#g)" stroke-width="3" stroke-linecap="round"/>
  <line x1="120" y1="68" x2="132" y2="68" stroke="url(#g)" stroke-width="4" stroke-linecap="round"/>
  <line x1="126" y1="62" x2="126" y2="74" stroke="url(#g)" stroke-width="4" stroke-linecap="round"/>
</svg>
